# xmcd
#
# Track frame offsets: 
#        150
#        25582
#        48352
#        75927
#        115010
#        154870
#        192157
#        220765
#        228667
#        253785
#        258575
#
# Disc length: 3703 seconds
#
# Revision: 1
# Processed by: cddbd v1.5.2PL0 Copyright (c) Steve Scherf et al.
# Submitted via: ExactAudioCopy v1.0b1
#
DISCID=870e750b
DTITLE=gaetano partipilo - basic
DYEAR=2004
DGENRE=Jazz
TTITLE0=Modern subconscious
TTITLE1=Too much wine on the bridge
TTITLE2=Pharaoah's monolith
TTITLE3=I have a dream
TTITLE4=Sonny blount protocol
TTITLE5=Tu vuò fa l'americano
TTITLE6=Tokio citizen (for az'shi osada)
TTITLE7=Vernice (for bunky green)
TTITLE8=After midnight
TTITLE9=Conversation with my father
TTITLE10=Fifth
EXTD=YEAR: 2004
EXTT0=
EXTT1=
EXTT2=
EXTT3=
EXTT4=
EXTT5=
EXTT6=
EXTT7=
EXTT8=
EXTT9=
EXTT10=
PLAYORDER=
